<?xml version="1.0" encoding="UTF-8"?><svg xmlns="http://www.w3.org/2000/svg" viewBox="0 0 24 24"><g id="a"/><g id="b"/><g id="c"/><g id="d"/><g id="e"/><g id="f"/><g id="g"><path d="M16,2.25h-1c-.41,0-.75,.34-.75,.75v1c0,.14-.11,.25-.25,.25h-3c-.14,0-.25-.11-.25-.25v-1c0-.41-.34-.75-.75-.75h-1c-1.52,0-2.75,1.23-2.75,2.75v3c0,.96,.79,1.75,1.75,1.75h1.25v3.23h0v3h0v3h0v1.02c0,.96,.79,1.75,1.75,1.75h3c.96,0,1.75-.79,1.75-1.75v-2.98h0v-3h0v-3h0v-1.27h1.25c.96,0,1.75-.79,1.75-1.75v-3c0-1.52-1.23-2.75-2.75-2.75Zm-5.25,14.26l3.5-1.4v1.38l-3.5,1.4v-1.38Zm3.5-3.02l-3.5,1.4v-1.38l3.5-1.4v1.38Zm-.25,6.76h-3c-.14,0-.25-.11-.25-.25v-.49l3.5-1.4v1.89c0,.14-.11,.25-.25,.25Zm.25-9.76l-3.5,1.4v-2.14h3.5v.74Zm3-2.49c0,.14-.11,.25-.25,.25H8c-.14,0-.25-.11-.25-.25v-3c0-.69,.56-1.25,1.25-1.25h.25v.25c0,.96,.79,1.75,1.75,1.75h3c.96,0,1.75-.79,1.75-1.75v-.25h.25c.69,0,1.25,.56,1.25,1.25v3Z"/></g><g id="h"/><g id="i"/><g id="j"/><g id="k"/><g id="l"/><g id="m"/><g id="n"/><g id="o"/><g id="p"/><g id="q"/><g id="r"/><g id="s"/><g id="t"/><g id="u"/></svg>