<?xml version="1.0" encoding="UTF-8"?><svg xmlns="http://www.w3.org/2000/svg" viewBox="0 0 24 24"><g id="a"/><g id="b"/><g id="c"/><g id="d"/><g id="e"/><g id="f"/><g id="g"/><g id="h"/><g id="i"/><g id="j"/><g id="k"><g><path d="M21.5,4.88l-2.12-2.12c-.68-.68-1.79-.68-2.47,0l-.92,.92c-.48-.32-1.13-.29-1.56,.14l-1.41,1.41c-.42,.42-.46,1.07-.14,1.56l-2.33,2.33c-.68,.68-.68,1.79,0,2.47l2.12,2.12c.33,.33,.77,.51,1.24,.51s.91-.18,1.24-.51l2.33-2.33c.21,.13,.43,.22,.67,.22,.32,0,.64-.12,.88-.37l1.41-1.41c.24-.24,.37-.55,.37-.89,0-.25-.09-.47-.22-.67l.92-.92c.68-.68,.68-1.79,0-2.47Zm-3.54-1.06c.1-.1,.26-.1,.35,0l2.12,2.12c.06,.06,.07,.14,.07,.18s0,.11-.07,.18l-.88,.88-2.47-2.47,.88-.88Zm-3.89,8.84c-.13,.13-.23,.13-.35,0l-2.12-2.12c-.1-.1-.1-.26,0-.35l2.3-2.3,1.24,1.24,1.24,1.24-2.3,2.3Zm4.07-2.65l-1.94-1.94-1.77-1.77h0l-.18-.18,1.06-1.06,3.89,3.89-1.06,1.06Z"/><path d="M8.19,11.11c-.36-.36-.86-.54-1.38-.51-.51,.04-.98,.31-1.3,.76l-1.63,2.56c-.38,.53-.42,1.2-.16,1.76l-.96,.96c-.68,.68-.68,1.79,0,2.47l2.12,2.12c.34,.34,.79,.51,1.24,.51s.9-.17,1.24-.51l.96-.96c.24,.11,.49,.17,.75,.17,.34,0,.69-.1,.98-.31l2.63-1.67c.42-.3,.68-.76,.73-1.28,.04-.51-.14-1.02-.51-1.38l-4.69-4.69Zm-2.25,9.06l-2.12-2.12c-.06-.06-.07-.14-.07-.18s0-.11,.07-.18l.88-.88,1.24,1.24,1.24,1.24-.88,.88c-.1,.1-.26,.1-.35,0Zm5.88-2.95l-2.63,1.67c-.1,.07-.24,.06-.32-.03l-.11-.11h0l-1.77-1.77-1.88-1.88c-.09-.09-.1-.22,0-.36l1.63-2.56c.06-.08,.14-.1,.18-.1h.02s.12,.01,.18,.07l4.69,4.69c.07,.07,.08,.15,.07,.2,0,.04-.02,.12-.07,.16Z"/></g></g><g id="l"/><g id="m"/><g id="n"/><g id="o"/><g id="p"/><g id="q"/><g id="r"/><g id="s"/><g id="t"/><g id="u"/></svg>