<?xml version="1.0" encoding="UTF-8"?><svg xmlns="http://www.w3.org/2000/svg" viewBox="0 0 24 24"><g id="a"/><g id="b"/><g id="c"/><g id="d"/><g id="e"/><g id="f"/><g id="g"/><g id="h"/><g id="i"/><g id="j"/><g id="k"/><g id="l"/><g id="m"/><g id="n"/><g id="o"/><g id="p"/><g id="q"/><g id="r"/><g id="s"/><g id="t"/><g id="u"><g><path d="M20.14,9.92l1.39-1.39c.29-.29,.29-.77,0-1.06s-.77-.29-1.06,0l-1.01,1.01-.4-2.02c-.26-1.28-1.39-2.21-2.7-2.21H7.64c-1.31,0-2.44,.93-2.7,2.21l-.4,2.02-1.01-1.01c-.29-.29-.77-.29-1.06,0s-.29,.77,0,1.06l1.39,1.39c-.97,.68-1.61,1.8-1.61,3.08v3c0,.96,.79,1.75,1.75,1.75h.25v1.25c0,.96,.79,1.75,1.75,1.75h2c.96,0,1.75-.79,1.75-1.75v-1.25h4.5v1.25c0,.96,.79,1.75,1.75,1.75h2c.96,0,1.75-.79,1.75-1.75v-1.25h.25c.96,0,1.75-.79,1.75-1.75v-3c0-1.27-.64-2.4-1.61-3.08ZM6.41,6.75c.12-.58,.63-1,1.23-1h8.72c.59,0,1.11,.42,1.23,1l.5,2.5H5.92l.5-2.5Zm1.84,12.25c0,.14-.11,.25-.25,.25h-2c-.14,0-.25-.11-.25-.25v-1.25h2.5v1.25Zm10,0c0,.14-.11,.25-.25,.25h-2c-.14,0-.25-.11-.25-.25v-1.25h2.5v1.25Zm2-3c0,.14-.11,.25-.25,.25H4c-.14,0-.25-.11-.25-.25v-3c0-1.24,1.01-2.25,2.25-2.25h12c1.24,0,2.25,1.01,2.25,2.25v3Z"/><path d="M7.5,11.25c-1.24,0-2.25,1.01-2.25,2.25s1.01,2.25,2.25,2.25,2.25-1.01,2.25-2.25-1.01-2.25-2.25-2.25Zm0,3c-.41,0-.75-.34-.75-.75s.34-.75,.75-.75,.75,.34,.75,.75-.34,.75-.75,.75Z"/><path d="M16.5,11.25c-1.24,0-2.25,1.01-2.25,2.25s1.01,2.25,2.25,2.25,2.25-1.01,2.25-2.25-1.01-2.25-2.25-2.25Zm0,3c-.41,0-.75-.34-.75-.75s.34-.75,.75-.75,.75,.34,.75,.75-.34,.75-.75,.75Z"/></g></g></svg>