<?xml version="1.0" encoding="UTF-8"?><svg xmlns="http://www.w3.org/2000/svg" viewBox="0 0 24 24"><g id="a"/><g id="b"/><g id="c"/><g id="d"/><g id="e"/><g id="f"/><g id="g"/><g id="h"/><g id="i"/><g id="j"/><g id="k"/><g id="l"><g><path d="M12.95,8.35h0c-.75,.75-.75,1.96,0,2.7,.36,.36,.84,.56,1.35,.56s.99-.2,1.35-.56,.56-.84,.56-1.35-.2-.99-.56-1.35c-.72-.72-1.98-.72-2.7,0Zm1.64,1.64c-.16,.15-.43,.16-.58,0-.16-.16-.16-.42,0-.58,.16-.16,.43-.16,.58,0,.08,.08,.12,.18,.12,.29s-.04,.21-.12,.29Z"/><path d="M8.02,13.28h0c-.75,.75-.75,1.96,0,2.7,.37,.37,.86,.56,1.35,.56s.98-.19,1.35-.56c.75-.75,.75-1.96,0-2.7-.75-.74-1.96-.74-2.7,0Zm1.64,1.64c-.16,.16-.42,.16-.58,0-.16-.16-.16-.42,0-.58,.16-.16,.42-.16,.58,0s.16,.42,0,.58Z"/><path d="M21.53,5.3c-.29-.29-.77-.29-1.06,0l-1.58,1.58c-.22-.36-.47-.7-.77-1-.3-.3-.64-.55-1-.77l1.58-1.58c.29-.29,.29-.77,0-1.06s-.77-.29-1.06,0l-2.02,2.02c-.5-.13-1.03-.19-1.57-.17-1.43,.04-2.74,.63-3.6,1.6-.6,.68-.97,1.53-1.1,2.51-.08,.64-.61,1.16-1.25,1.25-.99,.13-1.83,.5-2.51,1.1-.97,.86-1.55,2.17-1.6,3.6-.02,.53,.05,1.06,.17,1.56l-1.52,1.52c-.29,.29-.29,.77,0,1.06,.15,.15,.34,.22,.53,.22s.38-.07,.53-.22l1.08-1.08c.22,.36,.47,.7,.77,1,.3,.3,.64,.54,1,.76l-1.26,1.26c-.29,.29-.29,.77,0,1.06,.15,.15,.34,.22,.53,.22s.38-.07,.53-.22l1.71-1.71c.45,.11,.9,.19,1.38,.19,.06,0,.12,0,.18,0,1.43-.04,2.74-.63,3.6-1.6,.6-.68,.97-1.52,1.1-2.51,.08-.64,.61-1.16,1.25-1.25,.99-.13,1.83-.5,2.51-1.1,.97-.86,1.55-2.17,1.6-3.6,.02-.53-.05-1.06-.17-1.56l2.02-2.02c.29-.29,.29-.77,0-1.06Zm-4.44,7.13c-.45,.4-1.03,.65-1.72,.74-1.32,.18-2.36,1.22-2.54,2.54-.09,.69-.34,1.27-.74,1.72-.59,.66-1.51,1.06-2.52,1.09-1.11,.04-2.2-.38-2.96-1.13-.75-.75-1.16-1.83-1.13-2.95,.03-1.02,.43-1.94,1.09-2.52,.45-.4,1.03-.65,1.72-.74,1.32-.18,2.36-1.22,2.54-2.54,.09-.69,.34-1.26,.74-1.72,.59-.66,1.51-1.06,2.52-1.09,.04,0,.09,0,.13,0,1.08,0,2.1,.41,2.82,1.13,.75,.75,1.16,1.83,1.13,2.95-.03,1.02-.43,1.94-1.09,2.53Z"/></g></g><g id="m"/><g id="n"/><g id="o"/><g id="p"/><g id="q"/><g id="r"/><g id="s"/><g id="t"/><g id="u"/></svg>