<?xml version="1.0" encoding="UTF-8"?><svg xmlns="http://www.w3.org/2000/svg" viewBox="0 0 24 24"><g id="a"/><g id="b"/><g id="c"/><g id="d"/><g id="e"><g><path d="M19,10.25h-7.25v-1.01c0-.99-.4-1.95-1.1-2.65l-2.47-2.47,.74-.49c.34-.23,.44-.7,.21-1.04-.23-.35-.7-.44-1.04-.21l-1.5,1h0l-3,2h0l-1,.67c-.34,.23-.44,.7-.21,1.04,.14,.22,.38,.33,.62,.33,.14,0,.29-.04,.42-.13l.49-.33,1.98,1.98c.23,.23,.37,.55,.37,.88v.42h-1.25c-1.52,0-2.75,1.23-2.75,2.75v6c0,1.52,1.23,2.75,2.75,2.75h14c1.52,0,2.75-1.23,2.75-2.75v-6c0-1.52-1.23-2.75-2.75-2.75ZM6.94,7.88l-1.77-1.77,1.73-1.15,2.69,2.69c.42,.42,.66,1,.66,1.59v1.01h-2.5v-.42c0-.73-.29-1.42-.81-1.94Zm13.31,11.12c0,.69-.56,1.25-1.25,1.25H5c-.69,0-1.25-.56-1.25-1.25v-6c0-.69,.56-1.25,1.25-1.25h14c.69,0,1.25,.56,1.25,1.25v6Z"/><path d="M13.46,13.93c-.33-.49-.87-.78-1.46-.78s-1.13,.29-1.46,.78l-.61,.92c-.45,.68-.57,1.55-.3,2.33,.25,.73,.79,1.28,1.5,1.52,.28,.09,.57,.14,.87,.14s.59-.05,.87-.14c.71-.24,1.25-.79,1.5-1.52,.27-.78,.15-1.65-.3-2.33l-.61-.92Zm-.5,2.77c-.06,.17-.2,.46-.56,.58-.25,.09-.53,.08-.79,0-.36-.12-.5-.42-.56-.58-.12-.34-.07-.72,.13-1.02l.61-.92c.13-.19,.29-.19,.42,0l.61,.92c.2,.3,.25,.68,.13,1.02Z"/></g></g><g id="f"/><g id="g"/><g id="h"/><g id="i"/><g id="j"/><g id="k"/><g id="l"/><g id="m"/><g id="n"/><g id="o"/><g id="p"/><g id="q"/><g id="r"/><g id="s"/><g id="t"/><g id="u"/></svg>