<?xml version="1.0" encoding="UTF-8"?><svg xmlns="http://www.w3.org/2000/svg" viewBox="0 0 24 24"><g id="a"/><g id="b"/><g id="c"/><g id="d"/><g id="e"/><g id="f"/><g id="g"/><g id="h"><g><path d="M7.5,14.25c-1.24,0-2.25,1.01-2.25,2.25s1.01,2.25,2.25,2.25,2.25-1.01,2.25-2.25-1.01-2.25-2.25-2.25Zm0,3c-.41,0-.75-.34-.75-.75s.34-.75,.75-.75,.75,.34,.75,.75-.34,.75-.75,.75Z"/><path d="M21.75,14c0-.86-.4-1.62-1.02-2.12-.01-.07-.02-.15-.06-.21l-2.95-5.9c0-.09,.03-.18,.03-.27,0-1.79-1.46-3.25-3.25-3.25-1.45,0-2.67,.96-3.09,2.28l-5.98,6.98c-.06,.07-.1,.15-.13,.24-1.79,.84-3.05,2.64-3.05,4.75,0,2.89,2.36,5.25,5.25,5.25,1.33,0,2.53-.51,3.45-1.32l8.26-3.7c1.42-.11,2.54-1.28,2.54-2.73Zm-2.75,1.25c-.69,0-1.25-.56-1.25-1.25s.56-1.25,1.25-1.25,1.25,.56,1.25,1.25-.56,1.25-1.25,1.25Zm-.2-3.98c-1.42,.11-2.55,1.28-2.55,2.73,0,.8,.35,1.51,.89,2.01l-4.66,2.09c.16-.51,.28-1.04,.28-1.6,0-2.85-2.29-5.17-5.13-5.24l3.88-4.52c.49,1.18,1.65,2.01,3,2.01,.99,0,1.86-.45,2.46-1.15l1.84,3.67ZM14.5,3.75c.96,0,1.75,.79,1.75,1.75s-.79,1.75-1.75,1.75-1.75-.79-1.75-1.75,.79-1.75,1.75-1.75ZM3.75,16.5c0-2.07,1.68-3.75,3.75-3.75s3.75,1.68,3.75,3.75-1.68,3.75-3.75,3.75-3.75-1.68-3.75-3.75Z"/></g></g><g id="i"/><g id="j"/><g id="k"/><g id="l"/><g id="m"/><g id="n"/><g id="o"/><g id="p"/><g id="q"/><g id="r"/><g id="s"/><g id="t"/><g id="u"/></svg>