<?xml version="1.0" encoding="UTF-8"?><svg xmlns="http://www.w3.org/2000/svg" viewBox="0 0 24 24"><g id="a"/><g id="b"/><g id="c"/><g id="d"/><g id="e"/><g id="f"/><g id="g"/><g id="h"/><g id="i"/><g id="j"/><g id="k"/><g id="l"/><g id="m"/><g id="n"/><g id="o"/><g id="p"/><g id="q"/><g id="r"/><g id="s"><g><path d="M21.07,8.31L15.69,2.93c-.54-.55-1.31-.85-2.07-.8-.77,.04-1.49,.39-1.99,.99l-4.5,5.4c-.92,1.1-.84,2.69,.17,3.71l.3,.3-5.13,5.13c-.14,.14-.22,.33-.22,.53v2.83c0,.41,.34,.75,.75,.75h2.83c.2,0,.39-.08,.53-.22l5.13-5.13,.3,.3c.54,.54,1.24,.81,1.94,.81,.62,0,1.25-.21,1.76-.64l5.4-4.5c.59-.49,.95-1.22,.99-1.99,.04-.77-.26-1.52-.8-2.07ZM5.52,20.25h-1.77v-1.77l4.91-4.91,1.77,1.77-4.91,4.91Zm14.41-9.03l-5.4,4.5c-.5,.42-1.22,.38-1.68-.08l-.83-.83-2.83-2.83-.83-.83c-.46-.46-.49-1.18-.08-1.68l4.5-5.4c.23-.27,.55-.43,.9-.45,.36-.01,.69,.11,.94,.36l5.39,5.39c.25,.25,.38,.58,.37,.94-.02,.36-.18,.68-.45,.9Z"/><path d="M15.55,7.03c-.29-.29-.77-.29-1.06,0s-.29,.77,0,1.06l1.41,1.41c.15,.15,.34,.22,.53,.22s.38-.07,.53-.22c.29-.29,.29-.77,0-1.06l-1.41-1.41Z"/></g></g><g id="t"/><g id="u"/></svg>