<?xml version="1.0" encoding="UTF-8"?><svg xmlns="http://www.w3.org/2000/svg" viewBox="0 0 24 24"><g id="a"/><g id="b"/><g id="c"/><g id="d"/><g id="e"/><g id="f"/><g id="g"/><g id="h"/><g id="i"/><g id="j"/><g id="k"/><g id="l"/><g id="m"/><g id="n"/><g id="o"/><g id="p"/><g id="q"/><g id="r"><g><path d="M18.36,9.3l-2.66-2.66c-.9-.9-2.09-1.39-3.36-1.39h-.59v-1.25c0-.96-.79-1.75-1.75-1.75h-3c-.96,0-1.75,.79-1.75,1.75v1.9c-.61,.5-1,1.26-1,2.1v11c0,1.52,1.23,2.75,2.75,2.75h10c1.52,0,2.75-1.23,2.75-2.75v-6.34c0-1.25-.51-2.47-1.39-3.36ZM6.75,5.25v-1.25c0-.14,.11-.25,.25-.25h3c.14,0,.25,.11,.25,.25v1.25h-3.5Zm11.5,13.75c0,.69-.56,1.25-1.25,1.25H7c-.69,0-1.25-.56-1.25-1.25V8c0-.69,.56-1.25,1.25-1.25h5.34c.87,0,1.68,.34,2.3,.95l2.66,2.66c.61,.6,.95,1.44,.95,2.3v6.34Z"/><path d="M14.5,11.25c-1.24,0-2.25,1.01-2.25,2.25v3c0,1.24,1.01,2.25,2.25,2.25s2.25-1.01,2.25-2.25v-3c0-1.24-1.01-2.25-2.25-2.25Zm.75,5.25c0,.41-.34,.75-.75,.75s-.75-.34-.75-.75v-3c0-.41,.34-.75,.75-.75s.75,.34,.75,.75v3Z"/></g></g><g id="s"/><g id="t"/><g id="u"/></svg>