<?xml version="1.0" encoding="UTF-8"?><svg xmlns="http://www.w3.org/2000/svg" viewBox="0 0 24 24"><g id="a"/><g id="b"/><g id="c"/><g id="d"/><g id="e"/><g id="f"/><g id="g"/><g id="h"/><g id="i"><g><path d="M19,5.25h-6c-2.62,0-4.75,2.13-4.75,4.75v2c0,.14-.11,.25-.25,.25h-1.37c-.33-1.15-1.38-2-2.63-2h-1c-.41,0-.75,.34-.75,.75v8c0,.41,.34,.75,.75,.75h1c1.28,0,2.36-.89,2.66-2.08l10.97-1.46c2.35-.31,4.12-2.34,4.12-4.71v-3.5c0-1.52-1.23-2.75-2.75-2.75ZM5.25,17c0,.69-.56,1.25-1.25,1.25h-.25v-6.5h.25c.69,0,1.25,.56,1.25,1.25v4Zm15-5.5c0,1.62-1.21,3.01-2.82,3.22l-10.68,1.42v-2.39h1.25c.96,0,1.75-.79,1.75-1.75v-2c0-1.79,1.46-3.25,3.25-3.25h6c.69,0,1.25,.56,1.25,1.25v3.5Z"/><path d="M17.25,7.98h-3c-1.65,0-3,1.32-3,2.93v1.36c0,.42,.18,.82,.5,1.1,.28,.25,.63,.38,1,.38,.06,0,.12,0,.18-.01l3.19-.39h0c1.5-.18,2.63-1.43,2.63-2.91v-.98c0-.81-.67-1.48-1.5-1.48Zm0,2.46c0,.72-.56,1.33-1.31,1.42l-3.19,.41v-1.36c0-.79,.67-1.43,1.5-1.43l3-.02v.98Z"/></g></g><g id="j"/><g id="k"/><g id="l"/><g id="m"/><g id="n"/><g id="o"/><g id="p"/><g id="q"/><g id="r"/><g id="s"/><g id="t"/><g id="u"/></svg>