<?xml version="1.0" encoding="UTF-8"?><svg xmlns="http://www.w3.org/2000/svg" viewBox="0 0 24 24"><g id="a"/><g id="b"/><g id="c"/><g id="d"/><g id="e"/><g id="f"/><g id="g"/><g id="h"/><g id="i"/><g id="j"/><g id="k"/><g id="l"/><g id="m"><path d="M20,17.25h-5.38c-.1,0-.18-.05-.22-.14l-.45-.89c-.3-.6-.9-.97-1.57-.97h-1.7l2.09-2.5c.14,.03,.28,.07,.42,.07,.5,0,1-.21,1.35-.63l.64-.77c.09-.11,.25-.12,.35-.03l.38,.32c.95,.79,2.38,.66,3.17-.29,.38-.46,.57-1.05,.51-1.64s-.34-1.14-.8-1.52l-1.34-1.12,.8-.96c.3-.36,.44-.81,.4-1.28-.04-.47-.26-.89-.62-1.19l-.77-.64c-.74-.62-1.85-.51-2.46,.23l-.91,1.1c-.63-.16-1.33,.04-1.78,.57l-2.56,3.07c-.3,.36-.44,.81-.4,1.28,.02,.2,.08,.39,.16,.57l-4.5,5.4c-.22,.06-.41,.22-.5,.44l-2,5c-.09,.23-.06,.49,.08,.7s.37,.33,.62,.33H21c.41,0,.75-.34,.75-.75v-2c0-.96-.79-1.75-1.75-1.75Zm-11.27-2h-1.95l3.56-4.28,1.15,.96-2.76,3.32ZM15.94,4.25c.09-.11,.25-.12,.35-.03l.77,.64c.07,.06,.08,.13,.09,.17s0,.11-.06,.18l-.8,.96-1.15-.96,.8-.96Zm-5.25,4.74l2.56-3.07c.06-.07,.13-.09,.17-.09h.02s.1,0,.16,.06l4.23,3.52c.15,.13,.25,.31,.27,.51,.02,.2-.04,.39-.17,.55-.27,.32-.74,.36-1.06,.1l-.38-.32c-.74-.62-1.85-.51-2.46,.23l-.64,.77c-.09,.11-.25,.12-.35,.03l-2.31-1.92c-.07-.06-.08-.13-.09-.17,0-.04,0-.11,.06-.18Zm9.56,11.26H4.11l1.4-3.5h6.87c.1,0,.18,.05,.22,.14l.45,.89c.3,.6,.9,.97,1.57,.97h5.38c.14,0,.25,.11,.25,.25v1.25Z"/></g><g id="n"/><g id="o"/><g id="p"/><g id="q"/><g id="r"/><g id="s"/><g id="t"/><g id="u"/></svg>