<?xml version="1.0" encoding="UTF-8"?><svg xmlns="http://www.w3.org/2000/svg" viewBox="0 0 24 24"><g id="a"/><g id="b"/><g id="c"><path d="M21.24,8.16l-.71-.71-1.59-1.59,.88-.88c.29-.29,.29-.77,0-1.06s-.77-.29-1.06,0l-.88,.88-1.59-1.59h0l-.71-.71c-.29-.29-.77-.29-1.06,0s-.29,.77,0,1.06l.18,.18-1.59,1.59h0l-3.53,3.54c-.49,.49-.62,1.2-.41,1.82l-1.18,1.18-.18-.18c-.29-.29-.77-.29-1.06,0s-.29,.77,0,1.06l.18,.18-3.18,3.18-.18-.18c-.29-.29-.77-.29-1.06,0s-.29,.77,0,1.06l.71,.71h0l.88,.88-.88,.88c-.29,.29-.29,.77,0,1.06,.15,.15,.34,.22,.53,.22s.38-.07,.53-.22l.88-.88,1.59,1.59c.15,.15,.34,.22,.53,.22s.38-.07,.53-.22c.29-.29,.29-.77,0-1.06l-.18-.18,3.18-3.18,.18,.18c.15,.15,.34,.22,.53,.22s.38-.07,.53-.22c.29-.29,.29-.77,0-1.06l-.18-.18,1.19-1.19c.19,.07,.39,.11,.58,.11,.45,0,.9-.17,1.24-.51l1.41-1.41h0l2.12-2.12h0l1.59-1.59,.18,.18c.15,.15,.34,.22,.53,.22s.38-.07,.53-.22c.29-.29,.29-.77,0-1.06Zm-5.48,3l-3.18-3.18,1.06-1.06,3.18,3.18-1.06,1.06Zm-9.19,7.78l-.88-.88-.88-.88,3.18-3.18,1.77,1.77-3.18,3.18Zm4.24-4.24l-1.77-1.77,1.06-1.06,1.77,1.77-1.06,1.06Zm2.65-1.59l-2.83-2.83c-.1-.1-.1-.26,0-.35l.88-.88,3.18,3.18-.88,.88c-.1,.1-.26,.1-.35,0Zm4.42-4.07l-3.18-3.18,1.06-1.06,3.18,3.18-1.06,1.06Z"/></g><g id="d"/><g id="e"/><g id="f"/><g id="g"/><g id="h"/><g id="i"/><g id="j"/><g id="k"/><g id="l"/><g id="m"/><g id="n"/><g id="o"/><g id="p"/><g id="q"/><g id="r"/><g id="s"/><g id="t"/><g id="u"/></svg>