<?xml version="1.0" encoding="UTF-8"?><svg xmlns="http://www.w3.org/2000/svg" viewBox="0 0 24 24"><g id="a"/><g id="b"/><g id="c"/><g id="d"/><g id="e"/><g id="f"/><g id="g"/><g id="h"/><g id="i"/><g id="j"/><g id="k"/><g id="l"/><g id="m"/><g id="n"/><g id="o"><path d="M21.54,5.38l-2.92-2.92c-.27-.26-.68-.29-.98-.07l-5.34,4.01c-.49-.4-1.21-.39-1.66,.07l-1.48,1.48c-.24,.24-.37,.55-.37,.88,0,.26,.1,.49,.24,.7l-1.69,1.69c-.29,.29-.29,.77,0,1.06l.2,.2-3.85,3.85c-.21,.21-.26,.52-.17,.78l-.84,1.38c-.5,.82-.37,1.86,.3,2.54,.4,.4,.93,.61,1.46,.61,.37,0,.73-.1,1.07-.3l1.41-.85c.07,.02,.15,.04,.23,.04,.19,0,.38-.07,.53-.22l3.85-3.85,.2,.2c.15,.15,.34,.22,.53,.22s.38-.07,.53-.22l1.69-1.69c.21,.14,.44,.24,.7,.24h0c.33,0,.65-.13,.88-.37l1.48-1.48c.46-.46,.47-1.17,.07-1.66l4.01-5.34c.22-.3,.19-.72-.07-.98ZM6.4,15.74l1.86,1.86-1.13,1.13-1.86-1.86,1.13-1.13Zm-1.68,4.32c-.23,.13-.51,.1-.69-.08s-.22-.47-.08-.7l.61-1,1.17,1.17-1.01,.61Zm4.6-3.52l-1.86-1.86,1.13-1.13,1.86,1.86-1.13,1.13Zm2.92-1.46l-.2-.2-2.92-2.92-.2-.2,1.13-1.13,3.32,3.32-1.13,1.13Zm2.92-1.46l-.2-.2-4.38-4.38-.2-.2,1.13-1.13,4.78,4.78-1.13,1.13Zm1.38-3l-3.16-3.16,4.63-3.47,2,2-3.47,4.63Z"/></g><g id="p"/><g id="q"/><g id="r"/><g id="s"/><g id="t"/><g id="u"/></svg>