<?xml version="1.0" encoding="UTF-8"?><svg xmlns="http://www.w3.org/2000/svg" viewBox="0 0 24 24"><g id="a"/><g id="b"/><g id="c"/><g id="d"/><g id="e"/><g id="f"/><g id="g"/><g id="h"/><g id="i"/><g id="j"/><g id="k"/><g id="l"/><g id="m"/><g id="n"/><g id="o"/><g id="p"><g><path d="M12,2.25C6.62,2.25,2.25,6.62,2.25,12s4.37,9.75,9.75,9.75,9.75-4.37,9.75-9.75S17.38,2.25,12,2.25Zm0,1.5c4.55,0,8.25,3.7,8.25,8.25,0,1.56-.44,3.01-1.2,4.26-.02,0-.03-.01-.05-.01h-3.33c-.32-1.57-1.63-2.77-3.24-2.96l-1.81-2.71c-.23-.35-.7-.44-1.04-.21-.34,.23-.44,.7-.21,1.04l1.38,2.06c-1.22,.44-2.16,1.48-2.43,2.77h-3.33s-.03,0-.05,.01c-.76-1.25-1.2-2.7-1.2-4.26C3.75,7.45,7.45,3.75,12,3.75Zm0,11c.98,0,1.8,.63,2.11,1.5h-4.22c.31-.87,1.14-1.5,2.11-1.5Zm0,5.5c-2.31,0-4.4-.96-5.9-2.5h11.81c-1.5,1.54-3.59,2.5-5.9,2.5Z"/><path d="M12,6.75c.41,0,.75-.34,.75-.75v-1c0-.41-.34-.75-.75-.75s-.75,.34-.75,.75v1c0,.41,.34,.75,.75,.75Z"/><path d="M18,12.75h1c.41,0,.75-.34,.75-.75s-.34-.75-.75-.75h-1c-.41,0-.75,.34-.75,.75s.34,.75,.75,.75Z"/><path d="M16,8.75c.19,0,.38-.07,.53-.22l.71-.71c.29-.29,.29-.77,0-1.06s-.77-.29-1.06,0l-.71,.71c-.29,.29-.29,.77,0,1.06,.15,.15,.34,.22,.53,.22Z"/><path d="M7.47,8.53c.15,.15,.34,.22,.53,.22s.38-.07,.53-.22c.29-.29,.29-.77,0-1.06l-.71-.71c-.29-.29-.77-.29-1.06,0s-.29,.77,0,1.06l.71,.71Z"/><path d="M5,12.75h1c.41,0,.75-.34,.75-.75s-.34-.75-.75-.75h-1c-.41,0-.75,.34-.75,.75s.34,.75,.75,.75Z"/></g></g><g id="q"/><g id="r"/><g id="s"/><g id="t"/><g id="u"/></svg>