<?xml version="1.0" encoding="UTF-8"?><svg xmlns="http://www.w3.org/2000/svg" viewBox="0 0 24 24"><g id="a"/><g id="b"/><g id="c"/><g id="d"/><g id="e"/><g id="f"><g><path d="M14.14,5.25s-.09,0-.13,.01l-.26,.05v-.31c0-.41-.34-.75-.75-.75s-.75,.34-.75,.75v.58l-5.72,1.03c-2.48,.44-4.28,2.71-4.28,5.4s1.8,4.95,4.28,5.4l5.72,1.03v.58c0,.41,.34,.75,.75,.75s.75-.34,.75-.75v-.31l.26,.05s.09,.01,.13,.01c1.44,0,2.61-1.23,2.61-2.75V8c0-1.52-1.17-2.75-2.61-2.75ZM6.8,15.92c-1.77-.32-3.05-1.96-3.05-3.92s1.28-3.6,3.05-3.92l5.45-.98v9.8l-5.45-.98Zm8.45,.08c0,.67-.47,1.21-1.05,1.25l-.45-.08V6.83l.45-.08c.58,.03,1.05,.58,1.05,1.25v8Z"/><path d="M21,11.25h-2c-.41,0-.75,.34-.75,.75s.34,.75,.75,.75h2c.41,0,.75-.34,.75-.75s-.34-.75-.75-.75Z"/><path d="M19,6.75h2c.41,0,.75-.34,.75-.75s-.34-.75-.75-.75h-2c-.41,0-.75,.34-.75,.75s.34,.75,.75,.75Z"/><path d="M21,17.25h-2c-.41,0-.75,.34-.75,.75s.34,.75,.75,.75h2c.41,0,.75-.34,.75-.75s-.34-.75-.75-.75Z"/><path d="M19,15.75h1c.41,0,.75-.34,.75-.75s-.34-.75-.75-.75h-1c-.41,0-.75,.34-.75,.75s.34,.75,.75,.75Z"/><path d="M19,9.75h1c.41,0,.75-.34,.75-.75s-.34-.75-.75-.75h-1c-.41,0-.75,.34-.75,.75s.34,.75,.75,.75Z"/></g></g><g id="g"/><g id="h"/><g id="i"/><g id="j"/><g id="k"/><g id="l"/><g id="m"/><g id="n"/><g id="o"/><g id="p"/><g id="q"/><g id="r"/><g id="s"/><g id="t"/><g id="u"/></svg>