<?xml version="1.0" encoding="UTF-8"?><svg xmlns="http://www.w3.org/2000/svg" viewBox="0 0 24 24"><g id="a"/><g id="b"/><g id="c"/><g id="d"/><g id="e"/><g id="f"/><g id="g"/><g id="h"/><g id="i"/><g id="j"/><g id="k"/><g id="l"/><g id="m"/><g id="n"/><g id="o"/><g id="p"/><g id="q"/><g id="r"/><g id="s"/><g id="t"><g><path d="M18.89,5.11c-1.84-1.84-4.29-2.86-6.89-2.86s-5.05,1.01-6.89,2.86c-1.84,1.84-2.86,4.29-2.86,6.89s1.01,5.05,2.86,6.89c1.84,1.84,4.29,2.86,6.89,2.86s5.05-1.01,6.89-2.86c1.84-1.84,2.86-4.29,2.86-6.89s-1.01-5.05-2.86-6.89Zm-1.06,12.73c-1.56,1.56-3.63,2.42-5.83,2.42s-4.28-.86-5.83-2.42c-1.56-1.56-2.42-3.63-2.42-5.83s.86-4.28,2.42-5.83c1.56-1.56,3.63-2.42,5.83-2.42s4.28,.86,5.83,2.42c1.56,1.56,2.42,3.63,2.42,5.83s-.86,4.28-2.42,5.83Z"/><path d="M12,6.25c-1.54,0-2.98,.6-4.07,1.68s-1.68,2.53-1.68,4.07,.6,2.98,1.68,4.07,2.53,1.68,4.07,1.68,2.98-.6,4.07-1.68,1.68-2.53,1.68-4.07-.6-2.98-1.68-4.07-2.53-1.68-4.07-1.68Zm3.48,8.17l-1.09-1.09c.23-.4,.36-.86,.36-1.33s-.13-.93-.36-1.33l1.09-1.09c1.01,1.45,1.01,3.39,0,4.84Zm-4.37-1.54c-.24-.24-.37-.55-.37-.88s.13-.65,.37-.88,.55-.37,.88-.37,.65,.13,.88,.37,.37,.55,.37,.88-.13,.65-.37,.88c-.47,.47-1.29,.47-1.77,0Zm-2.6,1.54c-1.01-1.45-1.01-3.39,0-4.84l1.09,1.09c-.23,.4-.36,.86-.36,1.33s.13,.93,.36,1.33l-1.09,1.09Zm5.9-5.9l-1.1,1.1c-.82-.43-1.83-.43-2.65,0l-1.1-1.1c.73-.51,1.57-.77,2.42-.77s1.7,.26,2.42,.77Zm-4.84,6.96l1.09-1.09c.4,.23,.86,.36,1.33,.36s.93-.13,1.33-.36l1.09,1.09c-1.45,1.01-3.39,1.01-4.84,0Z"/></g></g><g id="u"/></svg>