<?xml version="1.0" encoding="UTF-8"?><svg xmlns="http://www.w3.org/2000/svg" viewBox="0 0 24 24"><g id="a"/><g id="b"/><g id="c"/><g id="d"/><g id="e"/><g id="f"/><g id="g"/><g id="h"/><g id="i"/><g id="j"/><g id="k"/><g id="l"/><g id="m"/><g id="n"/><g id="o"/><g id="p"/><g id="q"><path d="M21.5,15.66l-1.6-8c-.16-.81-.88-1.41-1.72-1.41H5.82c-.83,0-1.55,.59-1.72,1.41l-1.6,8c-.1,.52,.03,1.05,.36,1.45s.83,.64,1.35,.64h15.56c.53,0,1.02-.23,1.35-.64s.47-.94,.36-1.45Zm-1.52,.5s-.09,.09-.19,.09h-3.38l.67-1c.26-.39,.35-.86,.26-1.31-.09-.46-.36-.85-.75-1.11l-.62-.41,.66-.99c.23-.34,.14-.81-.21-1.04-.35-.23-.81-.14-1.04,.21l-1.08,1.61h0l-.92,1.39c-.23,.34-.14,.81,.21,1.04,.13,.09,.27,.13,.42,.13,.24,0,.48-.12,.63-.33l.51-.76,.62,.41c.08,.05,.1,.12,.11,.16,0,.04,.01,.11-.04,.19l-1.22,1.83h-5.2l.67-1c.26-.39,.35-.86,.26-1.31-.09-.46-.36-.85-.75-1.11l-.62-.41,.66-.99c.23-.34,.14-.81-.21-1.04s-.81-.14-1.04,.21l-1.08,1.61h0l-.92,1.39c-.23,.34-.14,.81,.21,1.04,.13,.09,.27,.13,.42,.13,.24,0,.48-.12,.63-.33l.51-.76,.62,.41c.08,.05,.1,.12,.11,.16,0,.04,.01,.11-.04,.19l-1.22,1.83h-3.38c-.1,0-.17-.06-.19-.09s-.07-.11-.05-.21l1.6-8c.02-.12,.13-.2,.25-.2h12.36c.12,0,.22,.08,.25,.2l1.6,8c.02,.1-.02,.17-.05,.21Z"/></g><g id="r"/><g id="s"/><g id="t"/><g id="u"/></svg>