<?xml version="1.0" encoding="UTF-8"?><svg xmlns="http://www.w3.org/2000/svg" viewBox="0 0 24 24"><g id="a"/><g id="b"/><g id="c"/><g id="d"/><g id="e"/><g id="f"/><g id="g"><g><path d="M16,2.25h-1c-.41,0-.75,.34-.75,.75v1c0,.14-.11,.25-.25,.25h-3c-.14,0-.25-.11-.25-.25v-1c0-.41-.34-.75-.75-.75h-1c-1.52,0-2.75,1.23-2.75,2.75v3c0,.96,.79,1.75,1.75,1.75h1.25v2.72l.51-.17,4.97-1.99,1.03-.31v-.25h1.25c.96,0,1.75-.79,1.75-1.75v-3c0-1.52-1.23-2.75-2.75-2.75Z"/><polygon points="10.28 13.7 9.25 14.05 9.25 15.48 9.74 15.3 15.75 12.85 15.75 11.56 15.21 11.72 10.28 13.7"/><polygon points="10.28 16.7 9.25 17.08 9.25 18.5 9.71 18.31 15.75 15.85 15.75 14.5 15.29 14.69 10.28 16.7"/><path d="M10.28,19.7l-1.02,.42c.06,.91,.81,1.63,1.74,1.63h3c.96,0,1.75-.79,1.75-1.75v-2.5l-.46,.19-5.01,2Z"/></g></g><g id="h"/><g id="i"/><g id="j"/><g id="k"/><g id="l"/><g id="m"/><g id="n"/><g id="o"/><g id="p"/><g id="q"/><g id="r"/><g id="s"/><g id="t"/><g id="u"/></svg>