<?xml version="1.0" encoding="UTF-8"?><svg xmlns="http://www.w3.org/2000/svg" viewBox="0 0 24 24"><g id="a"/><g id="b"/><g id="c"/><g id="d"/><g id="e"/><g id="f"/><g id="g"/><g id="h"/><g id="i"/><g id="j"/><g id="k"><g><path d="M21.5,4.88l-2.12-2.12c-.68-.68-1.79-.68-2.47,0l-.92,.92c-.48-.32-1.13-.29-1.56,.14l-1.41,1.41c-.49,.49-.49,1.28,0,1.77l4.24,4.24c.24,.24,.56,.37,.88,.37s.64-.12,.88-.37l1.41-1.41c.24-.24,.37-.55,.37-.89,0-.25-.09-.47-.22-.67l.92-.92c.68-.68,.68-1.79,0-2.47Z"/><path d="M8.19,11.11c-.36-.36-.86-.54-1.38-.51-.51,.04-.98,.31-1.3,.76l-1.63,2.56c-.5,.7-.42,1.65,.19,2.25l3.75,3.75c.34,.34,.8,.52,1.25,.52,.34,0,.69-.1,.98-.31l2.63-1.67c.42-.3,.68-.76,.73-1.28,.04-.51-.14-1.02-.51-1.38l-4.69-4.69Z"/><path d="M3.01,17.24c-.14-.14-.26-.29-.37-.44-.54,.69-.51,1.69,.13,2.32l2.12,2.12c.34,.34,.79,.51,1.24,.51,.39,0,.77-.13,1.09-.39-.16-.11-.31-.23-.45-.37l-3.75-3.75Z"/><path d="M11.96,8.07c-.06-.06-.1-.13-.16-.19l-1.26,1.26c-.68,.68-.68,1.79,0,2.47l2.12,2.12c.33,.33,.77,.51,1.24,.51s.91-.18,1.24-.51l1.25-1.25c-.06-.05-.13-.1-.19-.16l-4.24-4.24Z"/></g></g><g id="l"/><g id="m"/><g id="n"/><g id="o"/><g id="p"/><g id="q"/><g id="r"/><g id="s"/><g id="t"/><g id="u"/></svg>