<?xml version="1.0" encoding="UTF-8"?><svg xmlns="http://www.w3.org/2000/svg" viewBox="0 0 24 24"><g id="a"/><g id="b"/><g id="c"/><g id="d"/><g id="e"/><g id="f"/><g id="g"/><g id="h"/><g id="i"/><g id="j"/><g id="k"/><g id="l"/><g id="m"/><g id="n"/><g id="o"/><g id="p"/><g id="q"/><g id="r"/><g id="s"/><g id="t"/><g id="u"><g><circle cx="16.5" cy="13.5" r=".75"/><circle cx="7.5" cy="13.5" r=".75"/><path d="M18,9.25H6c-2.07,0-3.75,1.68-3.75,3.75v3c0,.96,.79,1.75,1.75,1.75H20c.96,0,1.75-.79,1.75-1.75v-3c0-2.07-1.68-3.75-3.75-3.75ZM7.5,15.75c-1.24,0-2.25-1.01-2.25-2.25s1.01-2.25,2.25-2.25,2.25,1.01,2.25,2.25-1.01,2.25-2.25,2.25Zm9,0c-1.24,0-2.25-1.01-2.25-2.25s1.01-2.25,2.25-2.25,2.25,1.01,2.25,2.25-1.01,2.25-2.25,2.25Z"/><path d="M18,7.75c.47,0,.92,.08,1.35,.2l-.3-1.49c-.26-1.28-1.39-2.21-2.7-2.21H7.64c-1.31,0-2.44,.93-2.7,2.21l-.3,1.49c.43-.12,.88-.2,1.35-.2h12Z"/><path d="M21.53,8.53c.29-.29,.29-.77,0-1.06s-.77-.29-1.06,0l-.63,.63c.49,.19,.95,.45,1.36,.76l.33-.33Z"/><path d="M2.8,8.86c.41-.32,.86-.58,1.36-.76l-.63-.63c-.29-.29-.77-.29-1.06,0s-.29,.77,0,1.06l.33,.33Z"/><path d="M16,20.75h2c.88,0,1.6-.65,1.72-1.5h-5.45c.12,.85,.85,1.5,1.72,1.5Z"/><path d="M6,20.75h2c.88,0,1.6-.65,1.72-1.5H4.28c.12,.85,.85,1.5,1.72,1.5Z"/></g></g></svg>