<?xml version="1.0" encoding="UTF-8"?><svg xmlns="http://www.w3.org/2000/svg" viewBox="0 0 24 24"><g id="a"/><g id="b"><path d="M19.5,5.25h-1.75v-1.25c0-.09-.01-.17-.03-.25h.28c.41,0,.75-.34,.75-.75s-.34-.75-.75-.75H3c-.41,0-.75,.34-.75,.75s.34,.75,.75,.75h.28c-.01,.08-.03,.16-.03,.25v5.52c0,.54,.24,1.03,.66,1.37l4.25,3.4c.06,.05,.09,.12,.09,.19v5.52c0,.77,.47,1.42,1.2,1.66,.19,.06,.38,.09,.57,.09,.54,0,1.05-.25,1.39-.7l1-1.33c.23-.3,.35-.67,.35-1.05v-4.19c0-.08,.03-.15,.09-.19l4.25-3.4c.36-.28,.57-.69,.63-1.14h1.78c1.24,0,2.25-1.01,2.25-2.25s-1.01-2.25-2.25-2.25Zm0,3h-1.75v-1.5h1.75c.41,0,.75,.34,.75,.75s-.34,.75-.75,.75Z"/></g><g id="c"/><g id="d"/><g id="e"/><g id="f"/><g id="g"/><g id="h"/><g id="i"/><g id="j"/><g id="k"/><g id="l"/><g id="m"/><g id="n"/><g id="o"/><g id="p"/><g id="q"/><g id="r"/><g id="s"/><g id="t"/><g id="u"/></svg>