<?xml version="1.0" encoding="UTF-8"?><svg xmlns="http://www.w3.org/2000/svg" viewBox="0 0 24 24"><g id="a"/><g id="b"/><g id="c"/><g id="d"/><g id="e"><g><path d="M12.21,14.76c-.13-.19-.29-.19-.42,0l-.61,.92c-.2,.3-.25,.68-.13,1.02,.06,.17,.2,.46,.56,.58,.25,.08,.53,.08,.79,0,.36-.12,.5-.42,.56-.58,.12-.34,.07-.72-.13-1.02l-.61-.92Z"/><path d="M19,10.25H5c-1.52,0-2.75,1.23-2.75,2.75v6c0,1.52,1.23,2.75,2.75,2.75h14c1.52,0,2.75-1.23,2.75-2.75v-6c0-1.52-1.23-2.75-2.75-2.75Zm-4.63,6.94c-.25,.73-.79,1.28-1.5,1.52-.28,.1-.57,.14-.87,.14s-.59-.05-.87-.14c-.71-.24-1.25-.79-1.5-1.52-.27-.78-.15-1.65,.3-2.33l.61-.92c.33-.49,.87-.78,1.46-.78s1.13,.29,1.46,.78l.61,.92c.45,.68,.57,1.55,.3,2.33Z"/><path d="M3,7.42c.14,0,.29-.04,.42-.13l.49-.33,1.78,1.78h6.01c-.11-.81-.47-1.58-1.05-2.16l-2.47-2.47,.74-.49c.34-.23,.44-.7,.21-1.04-.23-.35-.7-.44-1.04-.21l-1.5,1h0l-3,2h0l-1,.67c-.34,.23-.44,.7-.21,1.04,.14,.22,.38,.33,.62,.33Z"/></g></g><g id="f"/><g id="g"/><g id="h"/><g id="i"/><g id="j"/><g id="k"/><g id="l"/><g id="m"/><g id="n"/><g id="o"/><g id="p"/><g id="q"/><g id="r"/><g id="s"/><g id="t"/><g id="u"/></svg>