<?xml version="1.0" encoding="UTF-8"?><svg xmlns="http://www.w3.org/2000/svg" viewBox="0 0 24 24"><g id="a"/><g id="b"/><g id="c"/><g id="d"/><g id="e"/><g id="f"/><g id="g"/><g id="h"/><g id="i"/><g id="j"/><g id="k"/><g id="l"/><g id="m"/><g id="n"/><g id="o"/><g id="p"/><g id="q"/><g id="r"/><g id="s"><g><path d="M21.07,8.31L15.69,2.93c-.54-.55-1.31-.85-2.07-.8-.77,.04-1.49,.39-1.99,.99l-4.5,5.4c-.92,1.1-.84,2.69,.17,3.71l4.49,4.49c.54,.54,1.24,.81,1.94,.81,.62,0,1.25-.21,1.76-.64l5.4-4.5c.59-.49,.95-1.22,.99-1.99,.04-.77-.26-1.52-.8-2.07Zm-4.11,1.19c-.15,.15-.34,.22-.53,.22s-.38-.07-.53-.22l-1.41-1.41c-.29-.29-.29-.77,0-1.06s.77-.29,1.06,0l1.41,1.41c.29,.29,.29,.77,0,1.06Z"/><path d="M2.47,17.64c-.14,.14-.22,.33-.22,.53v2.83c0,.41,.34,.75,.75,.75h2.83c.2,0,.39-.08,.53-.22l4.07-4.07-3.89-3.89-4.07,4.07Z"/></g></g><g id="t"/><g id="u"/></svg>