<?xml version="1.0" encoding="UTF-8"?><svg xmlns="http://www.w3.org/2000/svg" viewBox="0 0 24 24"><g id="a"/><g id="b"/><g id="c"/><g id="d"/><g id="e"/><g id="f"/><g id="g"/><g id="h"/><g id="i"/><g id="j"><path d="M21,6.75c.41,0,.75-.34,.75-.75v-2c0-.96-.79-1.75-1.75-1.75H4c-.96,0-1.75,.79-1.75,1.75v2c0,.41,.34,.75,.75,.75h.86l6,2.25-6.13,2.3c-.29,.11-.49,.39-.49,.7s.19,.59,.49,.7l6.13,2.3-6,2.25h-.86c-.41,0-.75,.34-.75,.75v2c0,.96,.79,1.75,1.75,1.75H20c.96,0,1.75-.79,1.75-1.75v-2c0-.41-.34-.75-.75-.75h-.86l-6-2.25,6.13-2.3c.29-.11,.49-.39,.49-.7s-.19-.59-.49-.7l-6.13-2.3,6-2.25h.86Zm-5.14,10.5h-7.73l3.86-1.45,3.86,1.45Zm2-5.25l-5.86,2.2-5.86-2.2,5.86-2.2,5.86,2.2Zm-5.86-3.8l-3.86-1.45h7.73l-3.86,1.45Z"/></g><g id="k"/><g id="l"/><g id="m"/><g id="n"/><g id="o"/><g id="p"/><g id="q"/><g id="r"/><g id="s"/><g id="t"/><g id="u"/></svg>