<?xml version="1.0" encoding="UTF-8"?><svg xmlns="http://www.w3.org/2000/svg" viewBox="0 0 24 24"><g id="a"/><g id="b"/><g id="c"/><g id="d"/><g id="e"/><g id="f"/><g id="g"/><g id="h"/><g id="i"/><g id="j"/><g id="k"/><g id="l"/><g id="m"/><g id="n"/><g id="o"/><g id="p"/><g id="q"/><g id="r"><g><path d="M14.5,12.75c-.41,0-.75,.34-.75,.75v3c0,.41,.34,.75,.75,.75s.75-.34,.75-.75v-3c0-.41-.34-.75-.75-.75Z"/><path d="M18.36,9.3l-2.66-2.66c-.9-.9-2.09-1.39-3.36-1.39H7c-1.52,0-2.75,1.23-2.75,2.75v11c0,1.52,1.23,2.75,2.75,2.75h10c1.52,0,2.75-1.23,2.75-2.75v-6.34c0-1.25-.51-2.47-1.39-3.36Zm-1.61,7.2c0,1.24-1.01,2.25-2.25,2.25s-2.25-1.01-2.25-2.25v-3c0-1.24,1.01-2.25,2.25-2.25s2.25,1.01,2.25,2.25v3Z"/><path d="M11.72,3.75c-.12-.85-.85-1.5-1.72-1.5h-3c-.96,0-1.75,.79-1.75,1.75v.14c.54-.24,1.12-.39,1.75-.39h4.72Z"/></g></g><g id="s"/><g id="t"/><g id="u"/></svg>