<?xml version="1.0" encoding="UTF-8"?><svg xmlns="http://www.w3.org/2000/svg" viewBox="0 0 24 24"><g id="a"/><g id="b"/><g id="c"/><g id="d"><path d="M20,5.25h-.25v-.75c0-1.24-1.01-2.25-2.25-2.25s-2.25,1.01-2.25,2.25v.75h-3.5v-.75c0-1.24-1.01-2.25-2.25-2.25s-2.25,1.01-2.25,2.25v.75h-3.25c-.96,0-1.75,.79-1.75,1.75v2.7c0,.35,.1,.68,.29,.97l1.66,2.5s.04,.09,.04,.14v3.7c0,.96,.79,1.75,1.75,1.75h1.25v.75c0,1.24,1.01,2.25,2.25,2.25s2.25-1.01,2.25-2.25v-.75h3.5v.75c0,1.24,1.01,2.25,2.25,2.25s2.25-1.01,2.25-2.25v-.75h.25c.96,0,1.75-.79,1.75-1.75V7c0-.96-.79-1.75-1.75-1.75Zm-1.25,3.75v6c0,.41-.34,.75-.75,.75s-.75-.34-.75-.75v-6c0-.41,.34-.75,.75-.75s.75,.34,.75,.75Zm-2-4.5c0-.41,.34-.75,.75-.75s.75,.34,.75,.75v.75h-1.5v-.75Zm-7,4.5v6c0,.41-.34,.75-.75,.75s-.75-.34-.75-.75v-6c0-.41,.34-.75,.75-.75s.75,.34,.75,.75Zm-1-4.5c0-.41,.34-.75,.75-.75s.75,.34,.75,.75v.75h-1.5v-.75Zm-2.73,5.25c-.41,0-.75-.34-.75-.75s.33-.75,.74-.75h.01c.41,0,.75,.34,.75,.75s-.34,.75-.75,.75Zm4.23,9.75c0,.41-.34,.75-.75,.75s-.75-.34-.75-.75v-.75h1.5v.75Zm2.5-4.5c0,.41-.34,.75-.75,.75s-.75-.34-.75-.75v-6c0-.41,.34-.75,.75-.75s.75,.34,.75,.75v6Zm1.5,0v-6c0-.41,.34-.75,.75-.75s.75,.34,.75,.75v6c0,.41-.34,.75-.75,.75s-.75-.34-.75-.75Zm4,4.5c0,.41-.34,.75-.75,.75s-.75-.34-.75-.75v-.75h1.5v.75Z"/></g><g id="e"/><g id="f"/><g id="g"/><g id="h"/><g id="i"/><g id="j"/><g id="k"/><g id="l"/><g id="m"/><g id="n"/><g id="o"/><g id="p"/><g id="q"/><g id="r"/><g id="s"/><g id="t"/><g id="u"/></svg>