<?xml version="1.0" encoding="UTF-8"?><svg xmlns="http://www.w3.org/2000/svg" viewBox="0 0 24 24"><g id="a"/><g id="b"/><g id="c"/><g id="d"/><g id="e"/><g id="f"/><g id="g"/><g id="h"/><g id="i"><g><path d="M19,5.25h-6c-2.62,0-4.75,2.13-4.75,4.75v2c0,.14-.11,.25-.25,.25h-2c-.41,0-.75,.34-.75,.75v4c0,.22,.09,.42,.26,.56,.14,.12,.31,.19,.49,.19,.03,0,.07,0,.1,0l11.53-1.54c2.35-.31,4.12-2.34,4.12-4.71v-3.5c0-1.52-1.23-2.75-2.75-2.75Zm-.25,5.19c0,1.48-1.13,2.73-2.63,2.91h0l-3.19,.39c-.06,0-.12,.01-.18,.01-.37,0-.72-.13-1-.38-.32-.28-.5-.68-.5-1.1v-1.36c0-1.62,1.35-2.93,3-2.93h3c.83,0,1.5,.66,1.5,1.48v.98Z"/><path d="M3.75,17v-4c0-1.11,.81-2.03,1.87-2.21-.46-.33-1.01-.54-1.62-.54h-1c-.41,0-.75,.34-.75,.75v8c0,.41,.34,.75,.75,.75h1c.61,0,1.16-.2,1.61-.53-.4-.07-.78-.25-1.1-.52-.49-.43-.77-1.05-.77-1.69Z"/></g></g><g id="j"/><g id="k"/><g id="l"/><g id="m"/><g id="n"/><g id="o"/><g id="p"/><g id="q"/><g id="r"/><g id="s"/><g id="t"/><g id="u"/></svg>