<?xml version="1.0" encoding="UTF-8"?><svg xmlns="http://www.w3.org/2000/svg" viewBox="0 0 24 24"><g id="a"/><g id="b"/><g id="c"/><g id="d"/><g id="e"/><g id="f"/><g id="g"/><g id="h"/><g id="i"/><g id="j"/><g id="k"/><g id="l"/><g id="m"><g><path d="M12.07,12.41c.33,.27,.72,.4,1.12,.4,.5,0,1-.21,1.35-.63l.64-.77c.09-.11,.25-.12,.35-.03l.38,.32c.95,.79,2.38,.66,3.17-.29,.38-.46,.57-1.05,.51-1.64s-.34-1.14-.8-1.52l-4.23-3.52c-.74-.62-1.85-.52-2.46,.23l-2.56,3.07c-.3,.36-.44,.81-.4,1.28,.04,.47,.26,.89,.62,1.19l2.3,1.92Z"/><path d="M18.38,5.96c.2-.32,.29-.69,.26-1.07-.04-.47-.26-.89-.62-1.19l-.77-.64c-.7-.58-1.72-.52-2.35,.12,.22,.11,.43,.24,.63,.4l2.86,2.38Z"/><path d="M5.12,16.82h.01l3.96-.07c.22,0,.42-.1,.56-.27l2.09-2.51c-.23-.11-.44-.24-.64-.4l-2.31-1.92c-.2-.16-.36-.35-.52-.55l-3.74,4.49c-.19,.23-.23,.54-.1,.8,.13,.26,.39,.43,.68,.43Z"/><path d="M20,17.25h-5.38c-.1,0-.18-.05-.22-.14l-.45-.89c-.26-.53-.77-.86-1.34-.94l-1.8,2.16c-.42,.5-1.03,.8-1.69,.81l-3.97,.07h-.03c-.61,0-1.17-.26-1.59-.68l-1.23,3.08c-.09,.23-.06,.49,.08,.7s.37,.33,.62,.33H21c.41,0,.75-.34,.75-.75v-2c0-.96-.79-1.75-1.75-1.75Z"/></g></g><g id="n"/><g id="o"/><g id="p"/><g id="q"/><g id="r"/><g id="s"/><g id="t"/><g id="u"/></svg>