<?xml version="1.0" encoding="UTF-8"?><svg xmlns="http://www.w3.org/2000/svg" viewBox="0 0 24 24"><g id="a"/><g id="b"/><g id="c"><g><polygon points="13.11 6.39 12.64 5.79 11.51 6.93 12.04 7.44 16.29 11.69 16.79 12.25 17.92 11.12 17.39 10.67 13.11 6.39"/><path d="M10.44,7.99l-.87,.87c-.49,.49-.62,1.2-.41,1.82l-1.18,1.18-.18-.18c-.29-.29-.77-.29-1.06,0s-.29,.77,0,1.06l4.24,4.24c.15,.15,.34,.22,.53,.22s.38-.07,.53-.22c.29-.29,.29-.77,0-1.06l-.18-.18,1.19-1.19c.19,.07,.39,.11,.58,.11,.45,0,.9-.17,1.24-.51l.85-.85-.53-.6-4.76-4.72Z"/><path d="M21.24,8.16l-.71-.71-1.59-1.59,.88-.88c.29-.29,.29-.77,0-1.06s-.77-.29-1.06,0l-.88,.88-1.59-1.59h0l-.71-.71c-.29-.29-.77-.29-1.06,0s-.29,.77,0,1.06l.18,.18-.99,.99,.52,.67,4.18,4.17,.57,.49,1.02-1.02,.18,.18c.15,.15,.34,.22,.53,.22s.38-.07,.53-.22c.29-.29,.29-.77,0-1.06Z"/><path d="M5.86,13.99l-2.12,2.12-.18-.18c-.29-.29-.77-.29-1.06,0s-.29,.77,0,1.06l.71,.71h0l.88,.88-.88,.88c-.29,.29-.29,.77,0,1.06,.15,.15,.34,.22,.53,.22s.38-.07,.53-.22l.88-.88,1.59,1.59c.15,.15,.34,.22,.53,.22s.38-.07,.53-.22c.29-.29,.29-.77,0-1.06l-.18-.18,2.12-2.12-3.89-3.89Z"/></g></g><g id="d"/><g id="e"/><g id="f"/><g id="g"/><g id="h"/><g id="i"/><g id="j"/><g id="k"/><g id="l"/><g id="m"/><g id="n"/><g id="o"/><g id="p"/><g id="q"/><g id="r"/><g id="s"/><g id="t"/><g id="u"/></svg>