<?xml version="1.0" encoding="UTF-8"?><svg xmlns="http://www.w3.org/2000/svg" viewBox="0 0 24 24"><g id="a"/><g id="b"/><g id="c"/><g id="d"/><g id="e"/><g id="f"/><g id="g"/><g id="h"/><g id="i"/><g id="j"/><g id="k"/><g id="l"/><g id="m"/><g id="n"/><g id="o"><g><path d="M12.4,6.47c-.49-.49-1.28-.49-1.77,0l-1.48,1.48c-.24,.24-.37,.55-.37,.88s.13,.65,.37,.88l5.14,5.14c.24,.24,.55,.37,.88,.37h0c.33,0,.65-.13,.88-.37l1.48-1.48c.49-.49,.49-1.28,0-1.77l-5.14-5.14Z"/><path d="M5.87,15.21l-.51-.55-1.68,1.68c-.29,.29-.29,.77,0,1.06l2.92,2.92c.15,.15,.34,.22,.53,.22s.38-.07,.53-.22l1.65-1.65-.53-.56-2.91-2.91Z"/><path d="M21.54,5.38l-2.92-2.92c-.27-.26-.68-.29-.98-.07l-4.11,3.08,5,5,3.08-4.11c.22-.3,.19-.72-.07-.98Z"/><path d="M8.09,10.78c-.05-.05-.09-.11-.14-.17l-.62,.62c-.29,.29-.29,.77,0,1.06l.2,.2-1.11,1.11,.53,.57,2.9,2.9,.52,.54,1.14-1.14,.2,.2c.15,.15,.34,.22,.53,.22s.38-.07,.53-.22l.62-.62c-.06-.05-.12-.09-.17-.14l-5.14-5.14Z"/><path d="M2.97,21.03c.4,.4,.93,.61,1.46,.61,.37,0,.73-.1,1.07-.3h0l-2.84-2.84c-.49,.82-.37,1.85,.31,2.53Z"/></g></g><g id="p"/><g id="q"/><g id="r"/><g id="s"/><g id="t"/><g id="u"/></svg>