<?xml version="1.0" encoding="UTF-8"?><svg xmlns="http://www.w3.org/2000/svg" viewBox="0 0 24 24"><g id="a"/><g id="b"/><g id="c"/><g id="d"/><g id="e"/><g id="f"/><g id="g"/><g id="h"/><g id="i"/><g id="j"/><g id="k"/><g id="l"/><g id="m"/><g id="n"/><g id="o"/><g id="p"><g><path d="M12,2.25C6.62,2.25,2.25,6.62,2.25,12c0,1.52,.36,2.96,.99,4.25h5.09c.26-1.29,1.2-2.33,2.43-2.77l-1.38-2.06c-.23-.34-.14-.81,.21-1.04,.34-.23,.81-.14,1.04,.21l1.81,2.71c1.61,.19,2.92,1.39,3.24,2.96h5.09c.63-1.29,.99-2.73,.99-4.25,0-5.38-4.37-9.75-9.75-9.75ZM6,12.75h-1c-.41,0-.75-.34-.75-.75s.34-.75,.75-.75h1c.41,0,.75,.34,.75,.75s-.34,.75-.75,.75Zm2.53-4.22c-.15,.15-.34,.22-.53,.22s-.38-.07-.53-.22l-.71-.71c-.29-.29-.29-.77,0-1.06s.77-.29,1.06,0l.71,.71c.29,.29,.29,.77,0,1.06Zm4.22-2.53c0,.41-.34,.75-.75,.75s-.75-.34-.75-.75v-1c0-.41,.34-.75,.75-.75s.75,.34,.75,.75v1Zm3.78,2.53c-.15,.15-.34,.22-.53,.22s-.38-.07-.53-.22c-.29-.29-.29-.77,0-1.06l.71-.71c.29-.29,.77-.29,1.06,0s.29,.77,0,1.06l-.71,.71Zm2.47,4.22h-1c-.41,0-.75-.34-.75-.75s.34-.75,.75-.75h1c.41,0,.75,.34,.75,.75s-.34,.75-.75,.75Z"/><path d="M12,21.75c3.22,0,6.08-1.58,7.86-4H4.14c1.78,2.42,4.63,4,7.86,4Z"/><path d="M12,14.75c-.98,0-1.8,.63-2.11,1.5h4.22c-.31-.87-1.14-1.5-2.11-1.5Z"/></g></g><g id="q"/><g id="r"/><g id="s"/><g id="t"/><g id="u"/></svg>