<?xml version="1.0" encoding="UTF-8"?><svg xmlns="http://www.w3.org/2000/svg" viewBox="0 0 24 24"><g id="a"/><g id="b"/><g id="c"/><g id="d"/><g id="e"/><g id="f"/><g id="g"/><g id="h"/><g id="i"/><g id="j"/><g id="k"/><g id="l"/><g id="m"/><g id="n"><g><path d="M8.25,7.63v1.62h-.25c-.96,0-1.75,.79-1.75,1.75v1.25h5.5v-1.25c0-.96-.79-1.75-1.75-1.75h-.25v-1.62c.91-.26,1.62-.97,1.88-1.88h3.37c.41,0,.75-.34,.75-.75s-.34-.75-.75-.75h-3.37c-.33-1.15-1.38-2-2.63-2s-2.3,.85-2.63,2H3c-.41,0-.75,.34-.75,.75s.34,.75,.75,.75h3.37c.26,.91,.97,1.62,1.88,1.88Z"/><path d="M21,12.25h-2c-.41,0-.75,.34-.75,.75s.34,.75,.75,.75h.25v1.25c0,1.24-1.01,2.25-2.25,2.25h-5.25v-3.5H6.25v6.5h-1.25c-.41,0-.75,.34-.75,.75s.34,.75,.75,.75H13c.41,0,.75-.34,.75-.75s-.34-.75-.75-.75h-1.25v-1.5h5.25c2.07,0,3.75-1.68,3.75-3.75v-1.25h.25c.41,0,.75-.34,.75-.75s-.34-.75-.75-.75Z"/></g></g><g id="o"/><g id="p"/><g id="q"/><g id="r"/><g id="s"/><g id="t"/><g id="u"/></svg>