<?xml version="1.0" encoding="UTF-8"?><svg xmlns="http://www.w3.org/2000/svg" viewBox="0 0 24 24"><g id="a"/><g id="b"/><g id="c"/><g id="d"/><g id="e"/><g id="f"/><g id="g"/><g id="h"/><g id="i"/><g id="j"/><g id="k"/><g id="l"/><g id="m"/><g id="n"/><g id="o"/><g id="p"/><g id="q"><path d="M21.5,15.66l-1.6-8c-.16-.81-.88-1.41-1.72-1.41H5.82c-.83,0-1.55,.59-1.72,1.41l-1.6,8c-.1,.52,.03,1.05,.36,1.45s.83,.64,1.35,.64h2.47l.66-1.13,1.47-2.21c.05-.08,.04-.15,.04-.19,0-.04-.03-.11-.11-.16l-.62-.41-.51,.76c-.14,.22-.38,.33-.63,.33-.14,0-.29-.04-.42-.13-.34-.23-.44-.7-.21-1.04l.92-1.38h0l1.08-1.62c.23-.34,.7-.44,1.04-.21s.44,.7,.21,1.04l-.66,.99,.62,.41c.39,.26,.65,.65,.75,1.11,.09,.46,0,.93-.26,1.31l-1.45,2.17-.2,.33h5.26l.67-1.13,1.47-2.2c.05-.08,.04-.15,.04-.19,0-.04-.03-.11-.11-.16l-.62-.41-.51,.76c-.14,.22-.38,.33-.63,.33-.14,0-.29-.04-.42-.13-.34-.23-.44-.7-.21-1.04l.92-1.38h0l1.08-1.62c.23-.34,.69-.44,1.04-.21,.34,.23,.44,.7,.21,1.04l-.66,.99,.62,.41c.39,.26,.65,.65,.75,1.11,.09,.46,0,.93-.26,1.31l-1.45,2.17-.2,.33h4.35c.53,0,1.02-.23,1.35-.64s.47-.94,.36-1.45Z"/></g><g id="r"/><g id="s"/><g id="t"/><g id="u"/></svg>